<svg viewBox="0 0 50 50" xmlns="http://www.w3.org/2000/svg" xmlns:bx="https://boxy-svg.com">
  <defs></defs>
  <rect x="-0.299" y="0.054" width="50.571" height="49.737" style="fill: rgb(0, 255, 0);"></rect>
  <rect x="37.384" y="13.933" width="0.122" height="2.224" style="fill: rgb(0, 255, 0);"></rect>
  <path d="M 63.427 34.895 L 74.724 54.462 L 52.13 54.462 L 63.427 34.895 Z" style="fill: rgb(255, 251, 251);" transform="matrix(0.647046, 0.762451, -0.762451, 0.647046, 32.95903, -67.735519)" bx:shape="triangle 52.13 34.895 22.594 19.567 0.5 0 1@8ebb68f8"></path>
  <path d="M 48.352 26.601 L 56.964 41.517 L 39.74 41.517 L 48.352 26.601 Z" style="fill: rgb(255, 251, 251);" transform="matrix(-0.236521, 0.971626, -0.971626, -0.236521, 59.741768, -0.595177)" bx:shape="triangle 39.74 26.601 17.224 14.916 0.5 0 1@c562ea19"></path>
  <path d="M 63.427 34.895 L 74.724 54.462 L 52.13 54.462 L 63.427 34.895 Z" style="fill: rgb(255, 251, 251);" transform="matrix(0.134553, 0.990906, -0.990906, 0.134553, 50.498192, -55.606846)" bx:shape="triangle 52.13 34.895 22.594 19.567 0.5 0 1@8ebb68f8" bx:origin="-0.296 1.609"></path>
  <path d="M 48.352 26.601 L 56.964 41.517 L 39.74 41.517 L 48.352 26.601 Z" style="fill: rgb(255, 251, 251);" transform="matrix(-0.687992, 0.725718, -0.725718, -0.687992, 99.318504, 30.357733)" bx:shape="triangle 39.74 26.601 17.224 14.916 0.5 0 1@c562ea19"></path>
</svg>